media_type=video|stream_index=0|key_frame=1|pkt_pts=56250|pkt_pts_time=18.768769|pkt_dts=56250|pkt_dts_time=18.768769|best_effort_timestamp=56250|best_effort_timestamp_time=18.768769|pkt_duration=N/A|pkt_duration_time=N/A|pkt_pos=3906379|pkt_size=876960|width=720|height=406|pix_fmt=rgb24|sample_aspect_ratio=1:1|pict_type=I|coded_picture_number=0|display_picture_number=0|interlaced_frame=0|top_field_first=0|repeat_pict=0|tag:lavfi.scene_score=1.000000
media_type=video|stream_index=0|key_frame=1|pkt_pts=77125|pkt_pts_time=25.734067|pkt_dts=77125|pkt_dts_time=25.734067|best_effort_timestamp=77125|best_effort_timestamp_time=25.734067|pkt_duration=N/A|pkt_duration_time=N/A|pkt_pos=5205013|pkt_size=876960|width=720|height=406|pix_fmt=rgb24|sample_aspect_ratio=1:1|pict_type=I|coded_picture_number=0|display_picture_number=0|interlaced_frame=0|top_field_first=0|repeat_pict=0|tag:lavfi.scene_score=0.847335
media_type=video|stream_index=0|key_frame=1|pkt_pts=84750|pkt_pts_time=28.278278|pkt_dts=84750|pkt_dts_time=28.278278|best_effort_timestamp=84750|best_effort_timestamp_time=28.278278|pkt_duration=N/A|pkt_duration_time=N/A|pkt_pos=5450403|pkt_size=876960|width=720|height=406|pix_fmt=rgb24|sample_aspect_ratio=1:1|pict_type=I|coded_picture_number=0|display_picture_number=0|interlaced_frame=0|top_field_first=0|repeat_pict=0|tag:lavfi.scene_score=0.904116
media_type=video|stream_index=0|key_frame=1|pkt_pts=92500|pkt_pts_time=30.864198|pkt_dts=92500|pkt_dts_time=30.864198|best_effort_timestamp=92500|best_effort_timestamp_time=30.864198|pkt_duration=N/A|pkt_duration_time=N/A|pkt_pos=5906890|pkt_size=876960|width=720|height=406|pix_fmt=rgb24|sample_aspect_ratio=1:1|pict_type=I|coded_picture_number=0|display_picture_number=0|interlaced_frame=0|top_field_first=0|repeat_pict=0|tag:lavfi.scene_score=0.603911
media_type=video|stream_index=0|key_frame=1|pkt_pts=119750|pkt_pts_time=39.956623|pkt_dts=119750|pkt_dts_time=39.956623|best_effort_timestamp=119750|best_effort_timestamp_time=39.956623|pkt_duration=N/A|pkt_duration_time=N/A|pkt_pos=7017531|pkt_size=876960|width=720|height=406|pix_fmt=rgb24|sample_aspect_ratio=1:1|pict_type=I|coded_picture_number=0|display_picture_number=0|interlaced_frame=0|top_field_first=0|repeat_pict=0|tag:lavfi.scene_score=1.000000
media_type=video|stream_index=0|key_frame=1|pkt_pts=145000|pkt_pts_time=48.381715|pkt_dts=145000|pkt_dts_time=48.381715|best_effort_timestamp=145000|best_effort_timestamp_time=48.381715|pkt_duration=N/A|pkt_duration_time=N/A|pkt_pos=7535461|pkt_size=876960|width=720|height=406|pix_fmt=rgb24|sample_aspect_ratio=1:1|pict_type=I|coded_picture_number=0|display_picture_number=0|interlaced_frame=0|top_field_first=0|repeat_pict=0|tag:lavfi.scene_score=0.774559
media_type=video|stream_index=0|key_frame=1|pkt_pts=202000|pkt_pts_time=67.400734|pkt_dts=202000|pkt_dts_time=67.400734|best_effort_timestamp=202000|best_effort_timestamp_time=67.400734|pkt_duration=N/A|pkt_duration_time=N/A|pkt_pos=8490970|pkt_size=876960|width=720|height=406|pix_fmt=rgb24|sample_aspect_ratio=1:1|pict_type=I|coded_picture_number=0|display_picture_number=0|interlaced_frame=0|top_field_first=0|repeat_pict=0|tag:lavfi.scene_score=0.664193
media_type=video|stream_index=0|key_frame=1|pkt_pts=224000|pkt_pts_time=74.741408|pkt_dts=224000|pkt_dts_time=74.741408|best_effort_timestamp=224000|best_effort_timestamp_time=74.741408|pkt_duration=N/A|pkt_duration_time=N/A|pkt_pos=9053598|pkt_size=876960|width=720|height=406|pix_fmt=rgb24|sample_aspect_ratio=1:1|pict_type=I|coded_picture_number=0|display_picture_number=0|interlaced_frame=0|top_field_first=0|repeat_pict=0|tag:lavfi.scene_score=0.419987
media_type=video|stream_index=0|key_frame=1|pkt_pts=232375|pkt_pts_time=77.535869|pkt_dts=232375|pkt_dts_time=77.535869|best_effort_timestamp=232375|best_effort_timestamp_time=77.535869|pkt_duration=N/A|pkt_duration_time=N/A|pkt_pos=9268044|pkt_size=876960|width=720|height=406|pix_fmt=rgb24|sample_aspect_ratio=1:1|pict_type=I|coded_picture_number=0|display_picture_number=0|interlaced_frame=0|top_field_first=0|repeat_pict=0|tag:lavfi.scene_score=0.446501
media_type=video|stream_index=0|key_frame=1|pkt_pts=238625|pkt_pts_time=79.621288|pkt_dts=238625|pkt_dts_time=79.621288|best_effort_timestamp=238625|best_effort_timestamp_time=79.621288|pkt_duration=N/A|pkt_duration_time=N/A|pkt_pos=9375969|pkt_size=876960|width=720|height=406|pix_fmt=rgb24|sample_aspect_ratio=1:1|pict_type=I|coded_picture_number=0|display_picture_number=0|interlaced_frame=0|top_field_first=0|repeat_pict=0|tag:lavfi.scene_score=0.433766
media_type=video|stream_index=0|key_frame=1|pkt_pts=247875|pkt_pts_time=82.707708|pkt_dts=247875|pkt_dts_time=82.707708|best_effort_timestamp=247875|best_effort_timestamp_time=82.707708|pkt_duration=N/A|pkt_duration_time=N/A|pkt_pos=9591608|pkt_size=876960|width=720|height=406|pix_fmt=rgb24|sample_aspect_ratio=1:1|pict_type=I|coded_picture_number=0|display_picture_number=0|interlaced_frame=0|top_field_first=0|repeat_pict=0|tag:lavfi.scene_score=0.535069
media_type=video|stream_index=0|key_frame=1|pkt_pts=289500|pkt_pts_time=96.596597|pkt_dts=289500|pkt_dts_time=96.596597|best_effort_timestamp=289500|best_effort_timestamp_time=96.596597|pkt_duration=N/A|pkt_duration_time=N/A|pkt_pos=10269055|pkt_size=876960|width=720|height=406|pix_fmt=rgb24|sample_aspect_ratio=1:1|pict_type=I|coded_picture_number=0|display_picture_number=0|interlaced_frame=0|top_field_first=0|repeat_pict=0|tag:lavfi.scene_score=0.596844
media_type=video|stream_index=0|key_frame=1|pkt_pts=303625|pkt_pts_time=101.309643|pkt_dts=303625|pkt_dts_time=101.309643|best_effort_timestamp=303625|best_effort_timestamp_time=101.309643|pkt_duration=N/A|pkt_duration_time=N/A|pkt_pos=10802312|pkt_size=876960|width=720|height=406|pix_fmt=rgb24|sample_aspect_ratio=1:1|pict_type=I|coded_picture_number=0|display_picture_number=0|interlaced_frame=0|top_field_first=0|repeat_pict=0|tag:lavfi.scene_score=0.539820
media_type=video|stream_index=0|key_frame=1|pkt_pts=315875|pkt_pts_time=105.397064|pkt_dts=315875|pkt_dts_time=105.397064|best_effort_timestamp=315875|best_effort_timestamp_time=105.397064|pkt_duration=N/A|pkt_duration_time=N/A|pkt_pos=11196680|pkt_size=876960|width=720|height=406|pix_fmt=rgb24|sample_aspect_ratio=1:1|pict_type=I|coded_picture_number=0|display_picture_number=0|interlaced_frame=0|top_field_first=0|repeat_pict=0|tag:lavfi.scene_score=0.667967
media_type=video|stream_index=0|key_frame=1|pkt_pts=328875|pkt_pts_time=109.734735|pkt_dts=328875|pkt_dts_time=109.734735|best_effort_timestamp=328875|best_effort_timestamp_time=109.734735|pkt_duration=N/A|pkt_duration_time=N/A|pkt_pos=11691561|pkt_size=876960|width=720|height=406|pix_fmt=rgb24|sample_aspect_ratio=1:1|pict_type=I|coded_picture_number=0|display_picture_number=0|interlaced_frame=0|top_field_first=0|repeat_pict=0|tag:lavfi.scene_score=0.610412
media_type=video|stream_index=0|key_frame=1|pkt_pts=347500|pkt_pts_time=115.949283|pkt_dts=347500|pkt_dts_time=115.949283|best_effort_timestamp=347500|best_effort_timestamp_time=115.949283|pkt_duration=N/A|pkt_duration_time=N/A|pkt_pos=12332181|pkt_size=876960|width=720|height=406|pix_fmt=rgb24|sample_aspect_ratio=1:1|pict_type=I|coded_picture_number=0|display_picture_number=0|interlaced_frame=0|top_field_first=0|repeat_pict=0|tag:lavfi.scene_score=0.821756
media_type=video|stream_index=0|key_frame=1|pkt_pts=490875|pkt_pts_time=163.788789|pkt_dts=490875|pkt_dts_time=163.788789|best_effort_timestamp=490875|best_effort_timestamp_time=163.788789|pkt_duration=N/A|pkt_duration_time=N/A|pkt_pos=16808328|pkt_size=876960|width=720|height=406|pix_fmt=rgb24|sample_aspect_ratio=1:1|pict_type=I|coded_picture_number=0|display_picture_number=0|interlaced_frame=0|top_field_first=0|repeat_pict=0|tag:lavfi.scene_score=0.437200
media_type=video|stream_index=0|key_frame=1|pkt_pts=519250|pkt_pts_time=173.256590|pkt_dts=519250|pkt_dts_time=173.256590|best_effort_timestamp=519250|best_effort_timestamp_time=173.256590|pkt_duration=N/A|pkt_duration_time=N/A|pkt_pos=17822105|pkt_size=876960|width=720|height=406|pix_fmt=rgb24|sample_aspect_ratio=1:1|pict_type=I|coded_picture_number=0|display_picture_number=0|interlaced_frame=0|top_field_first=0|repeat_pict=0|tag:lavfi.scene_score=0.563122
media_type=video|stream_index=0|key_frame=1|pkt_pts=619375|pkt_pts_time=206.664998|pkt_dts=619375|pkt_dts_time=206.664998|best_effort_timestamp=619375|best_effort_timestamp_time=206.664998|pkt_duration=N/A|pkt_duration_time=N/A|pkt_pos=20970961|pkt_size=876960|width=720|height=406|pix_fmt=rgb24|sample_aspect_ratio=1:1|pict_type=I|coded_picture_number=0|display_picture_number=0|interlaced_frame=0|top_field_first=0|repeat_pict=0|tag:lavfi.scene_score=0.640524
media_type=video|stream_index=0|key_frame=1|pkt_pts=650250|pkt_pts_time=216.966967|pkt_dts=650250|pkt_dts_time=216.966967|best_effort_timestamp=650250|best_effort_timestamp_time=216.966967|pkt_duration=N/A|pkt_duration_time=N/A|pkt_pos=21591427|pkt_size=876960|width=720|height=406|pix_fmt=rgb24|sample_aspect_ratio=1:1|pict_type=I|coded_picture_number=0|display_picture_number=0|interlaced_frame=0|top_field_first=0|repeat_pict=0|tag:lavfi.scene_score=0.682363
media_type=video|stream_index=0|key_frame=1|pkt_pts=653250|pkt_pts_time=217.967968|pkt_dts=653250|pkt_dts_time=217.967968|best_effort_timestamp=653250|best_effort_timestamp_time=217.967968|pkt_duration=N/A|pkt_duration_time=N/A|pkt_pos=21612099|pkt_size=876960|width=720|height=406|pix_fmt=rgb24|sample_aspect_ratio=1:1|pict_type=I|coded_picture_number=0|display_picture_number=0|interlaced_frame=0|top_field_first=0|repeat_pict=0|tag:lavfi.scene_score=1.000000
media_type=video|stream_index=0|key_frame=1|pkt_pts=670125|pkt_pts_time=223.598599|pkt_dts=670125|pkt_dts_time=223.598599|best_effort_timestamp=670125|best_effort_timestamp_time=223.598599|pkt_duration=125|pkt_duration_time=0.041708|pkt_pos=22586839|pkt_size=876960|width=720|height=406|pix_fmt=rgb24|sample_aspect_ratio=1:1|pict_type=I|coded_picture_number=0|display_picture_number=0|interlaced_frame=0|top_field_first=0|repeat_pict=0|tag:lavfi.scene_score=0.865695
media_type=video|stream_index=0|key_frame=1|pkt_pts=682000|pkt_pts_time=227.560894|pkt_dts=682000|pkt_dts_time=227.560894|best_effort_timestamp=682000|best_effort_timestamp_time=227.560894|pkt_duration=125|pkt_duration_time=0.041708|pkt_pos=23226248|pkt_size=876960|width=720|height=406|pix_fmt=rgb24|sample_aspect_ratio=1:1|pict_type=I|coded_picture_number=0|display_picture_number=0|interlaced_frame=0|top_field_first=0|repeat_pict=0|tag:lavfi.scene_score=0.987571
media_type=video|stream_index=0|key_frame=1|pkt_pts=692250|pkt_pts_time=230.980981|pkt_dts=692250|pkt_dts_time=230.980981|best_effort_timestamp=692250|best_effort_timestamp_time=230.980981|pkt_duration=125|pkt_duration_time=0.041708|pkt_pos=23779967|pkt_size=876960|width=720|height=406|pix_fmt=rgb24|sample_aspect_ratio=1:1|pict_type=I|coded_picture_number=0|display_picture_number=0|interlaced_frame=0|top_field_first=0|repeat_pict=0|tag:lavfi.scene_score=1.000000
media_type=video|stream_index=0|key_frame=1|pkt_pts=731125|pkt_pts_time=243.952286|pkt_dts=731125|pkt_dts_time=243.952286|best_effort_timestamp=731125|best_effort_timestamp_time=243.952286|pkt_duration=125|pkt_duration_time=0.041708|pkt_pos=24486968|pkt_size=876960|width=720|height=406|pix_fmt=rgb24|sample_aspect_ratio=1:1|pict_type=I|coded_picture_number=0|display_picture_number=0|interlaced_frame=0|top_field_first=0|repeat_pict=0|tag:lavfi.scene_score=0.785075
media_type=video|stream_index=0|key_frame=1|pkt_pts=737875|pkt_pts_time=246.204538|pkt_dts=737875|pkt_dts_time=246.204538|best_effort_timestamp=737875|best_effort_timestamp_time=246.204538|pkt_duration=125|pkt_duration_time=0.041708|pkt_pos=24879278|pkt_size=876960|width=720|height=406|pix_fmt=rgb24|sample_aspect_ratio=1:1|pict_type=I|coded_picture_number=0|display_picture_number=0|interlaced_frame=0|top_field_first=0|repeat_pict=0|tag:lavfi.scene_score=0.871589
media_type=video|stream_index=0|key_frame=1|pkt_pts=753250|pkt_pts_time=251.334668|pkt_dts=753250|pkt_dts_time=251.334668|best_effort_timestamp=753250|best_effort_timestamp_time=251.334668|pkt_duration=125|pkt_duration_time=0.041708|pkt_pos=25996746|pkt_size=876960|width=720|height=406|pix_fmt=rgb24|sample_aspect_ratio=1:1|pict_type=I|coded_picture_number=0|display_picture_number=0|interlaced_frame=0|top_field_first=0|repeat_pict=0|tag:lavfi.scene_score=0.879385
media_type=video|stream_index=0|key_frame=1|pkt_pts=773750|pkt_pts_time=258.174842|pkt_dts=773750|pkt_dts_time=258.174842|best_effort_timestamp=773750|best_effort_timestamp_time=258.174842|pkt_duration=125|pkt_duration_time=0.041708|pkt_pos=27228647|pkt_size=876960|width=720|height=406|pix_fmt=rgb24|sample_aspect_ratio=1:1|pict_type=I|coded_picture_number=0|display_picture_number=0|interlaced_frame=0|top_field_first=0|repeat_pict=0|tag:lavfi.scene_score=0.741169
media_type=video|stream_index=0|key_frame=1|pkt_pts=813375|pkt_pts_time=271.396396|pkt_dts=813375|pkt_dts_time=271.396396|best_effort_timestamp=813375|best_effort_timestamp_time=271.396396|pkt_duration=125|pkt_duration_time=0.041708|pkt_pos=28378036|pkt_size=876960|width=720|height=406|pix_fmt=rgb24|sample_aspect_ratio=1:1|pict_type=I|coded_picture_number=0|display_picture_number=0|interlaced_frame=0|top_field_first=0|repeat_pict=0|tag:lavfi.scene_score=0.864139
media_type=video|stream_index=0|key_frame=1|pkt_pts=824500|pkt_pts_time=275.108442|pkt_dts=824500|pkt_dts_time=275.108442|best_effort_timestamp=824500|best_effort_timestamp_time=275.108442|pkt_duration=125|pkt_duration_time=0.041708|pkt_pos=28827362|pkt_size=876960|width=720|height=406|pix_fmt=rgb24|sample_aspect_ratio=1:1|pict_type=I|coded_picture_number=0|display_picture_number=0|interlaced_frame=0|top_field_first=0|repeat_pict=0|tag:lavfi.scene_score=0.694212
media_type=video|stream_index=0|key_frame=1|pkt_pts=855000|pkt_pts_time=285.285285|pkt_dts=855000|pkt_dts_time=285.285285|best_effort_timestamp=855000|best_effort_timestamp_time=285.285285|pkt_duration=125|pkt_duration_time=0.041708|pkt_pos=30470683|pkt_size=876960|width=720|height=406|pix_fmt=rgb24|sample_aspect_ratio=1:1|pict_type=I|coded_picture_number=0|display_picture_number=0|interlaced_frame=0|top_field_first=0|repeat_pict=0|tag:lavfi.scene_score=0.735232
media_type=video|stream_index=0|key_frame=1|pkt_pts=882750|pkt_pts_time=294.544545|pkt_dts=882750|pkt_dts_time=294.544545|best_effort_timestamp=882750|best_effort_timestamp_time=294.544545|pkt_duration=125|pkt_duration_time=0.041708|pkt_pos=31654281|pkt_size=876960|width=720|height=406|pix_fmt=rgb24|sample_aspect_ratio=1:1|pict_type=I|coded_picture_number=0|display_picture_number=0|interlaced_frame=0|top_field_first=0|repeat_pict=0|tag:lavfi.scene_score=0.699850
media_type=video|stream_index=0|key_frame=1|pkt_pts=899250|pkt_pts_time=300.050050|pkt_dts=899250|pkt_dts_time=300.050050|best_effort_timestamp=899250|best_effort_timestamp_time=300.050050|pkt_duration=125|pkt_duration_time=0.041708|pkt_pos=32634963|pkt_size=876960|width=720|height=406|pix_fmt=rgb24|sample_aspect_ratio=1:1|pict_type=I|coded_picture_number=0|display_picture_number=0|interlaced_frame=0|top_field_first=0|repeat_pict=0|tag:lavfi.scene_score=0.864612
media_type=video|stream_index=0|key_frame=1|pkt_pts=918250|pkt_pts_time=306.389723|pkt_dts=918250|pkt_dts_time=306.389723|best_effort_timestamp=918250|best_effort_timestamp_time=306.389723|pkt_duration=125|pkt_duration_time=0.041708|pkt_pos=33695534|pkt_size=876960|width=720|height=406|pix_fmt=rgb24|sample_aspect_ratio=1:1|pict_type=I|coded_picture_number=0|display_picture_number=0|interlaced_frame=0|top_field_first=0|repeat_pict=0|tag:lavfi.scene_score=1.000000
media_type=video|stream_index=0|key_frame=1|pkt_pts=928875|pkt_pts_time=309.934935|pkt_dts=928875|pkt_dts_time=309.934935|best_effort_timestamp=928875|best_effort_timestamp_time=309.934935|pkt_duration=125|pkt_duration_time=0.041708|pkt_pos=33904640|pkt_size=876960|width=720|height=406|pix_fmt=rgb24|sample_aspect_ratio=1:1|pict_type=I|coded_picture_number=0|display_picture_number=0|interlaced_frame=0|top_field_first=0|repeat_pict=0|tag:lavfi.scene_score=0.985686
media_type=video|stream_index=0|key_frame=1|pkt_pts=940625|pkt_pts_time=313.855522|pkt_dts=940625|pkt_dts_time=313.855522|best_effort_timestamp=940625|best_effort_timestamp_time=313.855522|pkt_duration=125|pkt_duration_time=0.041708|pkt_pos=34125351|pkt_size=876960|width=720|height=406|pix_fmt=rgb24|sample_aspect_ratio=1:1|pict_type=I|coded_picture_number=0|display_picture_number=0|interlaced_frame=0|top_field_first=0|repeat_pict=0|tag:lavfi.scene_score=1.000000
media_type=video|stream_index=0|key_frame=1|pkt_pts=973000|pkt_pts_time=324.657991|pkt_dts=973000|pkt_dts_time=324.657991|best_effort_timestamp=973000|best_effort_timestamp_time=324.657991|pkt_duration=125|pkt_duration_time=0.041708|pkt_pos=35225460|pkt_size=876960|width=720|height=406|pix_fmt=rgb24|sample_aspect_ratio=1:1|pict_type=I|coded_picture_number=0|display_picture_number=0|interlaced_frame=0|top_field_first=0|repeat_pict=0|tag:lavfi.scene_score=0.930466
media_type=video|stream_index=0|key_frame=1|pkt_pts=985875|pkt_pts_time=328.953954|pkt_dts=985875|pkt_dts_time=328.953954|best_effort_timestamp=985875|best_effort_timestamp_time=328.953954|pkt_duration=125|pkt_duration_time=0.041708|pkt_pos=35480073|pkt_size=876960|width=720|height=406|pix_fmt=rgb24|sample_aspect_ratio=1:1|pict_type=I|coded_picture_number=0|display_picture_number=0|interlaced_frame=0|top_field_first=0|repeat_pict=0|tag:lavfi.scene_score=0.950256
media_type=video|stream_index=0|key_frame=1|pkt_pts=1002500|pkt_pts_time=334.501168|pkt_dts=1002500|pkt_dts_time=334.501168|best_effort_timestamp=1002500|best_effort_timestamp_time=334.501168|pkt_duration=125|pkt_duration_time=0.041708|pkt_pos=35780682|pkt_size=876960|width=720|height=406|pix_fmt=rgb24|sample_aspect_ratio=1:1|pict_type=I|coded_picture_number=0|display_picture_number=0|interlaced_frame=0|top_field_first=0|repeat_pict=0|tag:lavfi.scene_score=0.948270
media_type=video|stream_index=0|key_frame=1|pkt_pts=1025625|pkt_pts_time=342.217217|pkt_dts=1025625|pkt_dts_time=342.217217|best_effort_timestamp=1025625|best_effort_timestamp_time=342.217217|pkt_duration=125|pkt_duration_time=0.041708|pkt_pos=36297044|pkt_size=876960|width=720|height=406|pix_fmt=rgb24|sample_aspect_ratio=1:1|pict_type=I|coded_picture_number=0|display_picture_number=0|interlaced_frame=0|top_field_first=0|repeat_pict=0|tag:lavfi.scene_score=0.922310
media_type=video|stream_index=0|key_frame=1|pkt_pts=1039375|pkt_pts_time=346.805138|pkt_dts=1039375|pkt_dts_time=346.805138|best_effort_timestamp=1039375|best_effort_timestamp_time=346.805138|pkt_duration=125|pkt_duration_time=0.041708|pkt_pos=36965079|pkt_size=876960|width=720|height=406|pix_fmt=rgb24|sample_aspect_ratio=1:1|pict_type=I|coded_picture_number=0|display_picture_number=0|interlaced_frame=0|top_field_first=0|repeat_pict=0|tag:lavfi.scene_score=0.804358
media_type=video|stream_index=0|key_frame=1|pkt_pts=1051750|pkt_pts_time=350.934268|pkt_dts=1051750|pkt_dts_time=350.934268|best_effort_timestamp=1051750|best_effort_timestamp_time=350.934268|pkt_duration=125|pkt_duration_time=0.041708|pkt_pos=37377065|pkt_size=876960|width=720|height=406|pix_fmt=rgb24|sample_aspect_ratio=1:1|pict_type=I|coded_picture_number=0|display_picture_number=0|interlaced_frame=0|top_field_first=0|repeat_pict=0|tag:lavfi.scene_score=0.843283
media_type=video|stream_index=0|key_frame=1|pkt_pts=1072125|pkt_pts_time=357.732733|pkt_dts=1072125|pkt_dts_time=357.732733|best_effort_timestamp=1072125|best_effort_timestamp_time=357.732733|pkt_duration=125|pkt_duration_time=0.041708|pkt_pos=37897668|pkt_size=876960|width=720|height=406|pix_fmt=rgb24|sample_aspect_ratio=1:1|pict_type=I|coded_picture_number=0|display_picture_number=0|interlaced_frame=0|top_field_first=0|repeat_pict=0|tag:lavfi.scene_score=0.874622
media_type=video|stream_index=0|key_frame=1|pkt_pts=1111875|pkt_pts_time=370.995996|pkt_dts=1111875|pkt_dts_time=370.995996|best_effort_timestamp=1111875|best_effort_timestamp_time=370.995996|pkt_duration=125|pkt_duration_time=0.041708|pkt_pos=38651727|pkt_size=876960|width=720|height=406|pix_fmt=rgb24|sample_aspect_ratio=1:1|pict_type=I|coded_picture_number=0|display_picture_number=0|interlaced_frame=0|top_field_first=0|repeat_pict=0|tag:lavfi.scene_score=0.816827
media_type=video|stream_index=0|key_frame=1|pkt_pts=1135000|pkt_pts_time=378.712045|pkt_dts=1135000|pkt_dts_time=378.712045|best_effort_timestamp=1135000|best_effort_timestamp_time=378.712045|pkt_duration=125|pkt_duration_time=0.041708|pkt_pos=39182988|pkt_size=876960|width=720|height=406|pix_fmt=rgb24|sample_aspect_ratio=1:1|pict_type=I|coded_picture_number=0|display_picture_number=0|interlaced_frame=0|top_field_first=0|repeat_pict=0|tag:lavfi.scene_score=0.792072
media_type=video|stream_index=0|key_frame=1|pkt_pts=1154750|pkt_pts_time=385.301969|pkt_dts=1154750|pkt_dts_time=385.301969|best_effort_timestamp=1154750|best_effort_timestamp_time=385.301969|pkt_duration=125|pkt_duration_time=0.041708|pkt_pos=39585732|pkt_size=876960|width=720|height=406|pix_fmt=rgb24|sample_aspect_ratio=1:1|pict_type=I|coded_picture_number=0|display_picture_number=0|interlaced_frame=0|top_field_first=0|repeat_pict=0|tag:lavfi.scene_score=0.844659
media_type=video|stream_index=0|key_frame=1|pkt_pts=1167000|pkt_pts_time=389.389389|pkt_dts=1167000|pkt_dts_time=389.389389|best_effort_timestamp=1167000|best_effort_timestamp_time=389.389389|pkt_duration=125|pkt_duration_time=0.041708|pkt_pos=39865600|pkt_size=876960|width=720|height=406|pix_fmt=rgb24|sample_aspect_ratio=1:1|pict_type=I|coded_picture_number=0|display_picture_number=0|interlaced_frame=0|top_field_first=0|repeat_pict=0|tag:lavfi.scene_score=0.785864
media_type=video|stream_index=0|key_frame=1|pkt_pts=1209875|pkt_pts_time=403.695362|pkt_dts=1209875|pkt_dts_time=403.695362|best_effort_timestamp=1209875|best_effort_timestamp_time=403.695362|pkt_duration=125|pkt_duration_time=0.041708|pkt_pos=41356124|pkt_size=876960|width=720|height=406|pix_fmt=rgb24|sample_aspect_ratio=1:1|pict_type=I|coded_picture_number=0|display_picture_number=0|interlaced_frame=0|top_field_first=0|repeat_pict=0|tag:lavfi.scene_score=0.651610
media_type=video|stream_index=0|key_frame=1|pkt_pts=1230625|pkt_pts_time=410.618952|pkt_dts=1230625|pkt_dts_time=410.618952|best_effort_timestamp=1230625|best_effort_timestamp_time=410.618952|pkt_duration=125|pkt_duration_time=0.041708|pkt_pos=41874035|pkt_size=876960|width=720|height=406|pix_fmt=rgb24|sample_aspect_ratio=1:1|pict_type=I|coded_picture_number=0|display_picture_number=0|interlaced_frame=0|top_field_first=0|repeat_pict=0|tag:lavfi.scene_score=0.937420
media_type=video|stream_index=0|key_frame=1|pkt_pts=1271375|pkt_pts_time=424.215883|pkt_dts=1271375|pkt_dts_time=424.215883|best_effort_timestamp=1271375|best_effort_timestamp_time=424.215883|pkt_duration=125|pkt_duration_time=0.041708|pkt_pos=43062732|pkt_size=876960|width=720|height=406|pix_fmt=rgb24|sample_aspect_ratio=1:1|pict_type=I|coded_picture_number=0|display_picture_number=0|interlaced_frame=0|top_field_first=0|repeat_pict=0|tag:lavfi.scene_score=1.000000
media_type=video|stream_index=0|key_frame=1|pkt_pts=1282625|pkt_pts_time=427.969636|pkt_dts=1282625|pkt_dts_time=427.969636|best_effort_timestamp=1282625|best_effort_timestamp_time=427.969636|pkt_duration=125|pkt_duration_time=0.041708|pkt_pos=43251544|pkt_size=876960|width=720|height=406|pix_fmt=rgb24|sample_aspect_ratio=1:1|pict_type=I|coded_picture_number=0|display_picture_number=0|interlaced_frame=0|top_field_first=0|repeat_pict=0|tag:lavfi.scene_score=1.000000
media_type=video|stream_index=0|key_frame=1|pkt_pts=1315000|pkt_pts_time=438.772105|pkt_dts=1315000|pkt_dts_time=438.772105|best_effort_timestamp=1315000|best_effort_timestamp_time=438.772105|pkt_duration=125|pkt_duration_time=0.041708|pkt_pos=44066565|pkt_size=876960|width=720|height=406|pix_fmt=rgb24|sample_aspect_ratio=1:1|pict_type=I|coded_picture_number=0|display_picture_number=0|interlaced_frame=0|top_field_first=0|repeat_pict=0|tag:lavfi.scene_score=0.975315
media_type=video|stream_index=0|key_frame=1|pkt_pts=1328000|pkt_pts_time=443.109776|pkt_dts=1328000|pkt_dts_time=443.109776|best_effort_timestamp=1328000|best_effort_timestamp_time=443.109776|pkt_duration=125|pkt_duration_time=0.041708|pkt_pos=44285410|pkt_size=876960|width=720|height=406|pix_fmt=rgb24|sample_aspect_ratio=1:1|pict_type=I|coded_picture_number=0|display_picture_number=0|interlaced_frame=0|top_field_first=0|repeat_pict=0|tag:lavfi.scene_score=0.916192
media_type=video|stream_index=0|key_frame=1|pkt_pts=1350875|pkt_pts_time=450.742409|pkt_dts=1350875|pkt_dts_time=450.742409|best_effort_timestamp=1350875|best_effort_timestamp_time=450.742409|pkt_duration=125|pkt_duration_time=0.041708|pkt_pos=45027031|pkt_size=876960|width=720|height=406|pix_fmt=rgb24|sample_aspect_ratio=1:1|pict_type=I|coded_picture_number=0|display_picture_number=0|interlaced_frame=0|top_field_first=0|repeat_pict=0|tag:lavfi.scene_score=0.862760
media_type=video|stream_index=0|key_frame=1|pkt_pts=1362625|pkt_pts_time=454.662996|pkt_dts=1362625|pkt_dts_time=454.662996|best_effort_timestamp=1362625|best_effort_timestamp_time=454.662996|pkt_duration=125|pkt_duration_time=0.041708|pkt_pos=45317560|pkt_size=876960|width=720|height=406|pix_fmt=rgb24|sample_aspect_ratio=1:1|pict_type=I|coded_picture_number=0|display_picture_number=0|interlaced_frame=0|top_field_first=0|repeat_pict=0|tag:lavfi.scene_score=0.838455
media_type=video|stream_index=0|key_frame=1|pkt_pts=1409000|pkt_pts_time=470.136803|pkt_dts=1409000|pkt_dts_time=470.136803|best_effort_timestamp=1409000|best_effort_timestamp_time=470.136803|pkt_duration=125|pkt_duration_time=0.041708|pkt_pos=46447026|pkt_size=876960|width=720|height=406|pix_fmt=rgb24|sample_aspect_ratio=1:1|pict_type=I|coded_picture_number=0|display_picture_number=0|interlaced_frame=0|top_field_first=0|repeat_pict=0|tag:lavfi.scene_score=1.000000
media_type=video|stream_index=0|key_frame=1|pkt_pts=1427000|pkt_pts_time=476.142809|pkt_dts=1427000|pkt_dts_time=476.142809|best_effort_timestamp=1427000|best_effort_timestamp_time=476.142809|pkt_duration=125|pkt_duration_time=0.041708|pkt_pos=47018145|pkt_size=876960|width=720|height=406|pix_fmt=rgb24|sample_aspect_ratio=1:1|pict_type=I|coded_picture_number=0|display_picture_number=0|interlaced_frame=0|top_field_first=0|repeat_pict=0|tag:lavfi.scene_score=0.865714
media_type=video|stream_index=0|key_frame=1|pkt_pts=1434250|pkt_pts_time=478.561895|pkt_dts=1434250|pkt_dts_time=478.561895|best_effort_timestamp=1434250|best_effort_timestamp_time=478.561895|pkt_duration=125|pkt_duration_time=0.041708|pkt_pos=47230482|pkt_size=876960|width=720|height=406|pix_fmt=rgb24|sample_aspect_ratio=1:1|pict_type=I|coded_picture_number=0|display_picture_number=0|interlaced_frame=0|top_field_first=0|repeat_pict=0|tag:lavfi.scene_score=0.871866
media_type=video|stream_index=0|key_frame=1|pkt_pts=1445625|pkt_pts_time=482.357357|pkt_dts=1445625|pkt_dts_time=482.357357|best_effort_timestamp=1445625|best_effort_timestamp_time=482.357357|pkt_duration=125|pkt_duration_time=0.041708|pkt_pos=47588537|pkt_size=876960|width=720|height=406|pix_fmt=rgb24|sample_aspect_ratio=1:1|pict_type=I|coded_picture_number=0|display_picture_number=0|interlaced_frame=0|top_field_first=0|repeat_pict=0|tag:lavfi.scene_score=0.870034
media_type=video|stream_index=0|key_frame=1|pkt_pts=1463500|pkt_pts_time=488.321655|pkt_dts=1463500|pkt_dts_time=488.321655|best_effort_timestamp=1463500|best_effort_timestamp_time=488.321655|pkt_duration=125|pkt_duration_time=0.041708|pkt_pos=48076558|pkt_size=876960|width=720|height=406|pix_fmt=rgb24|sample_aspect_ratio=1:1|pict_type=I|coded_picture_number=0|display_picture_number=0|interlaced_frame=0|top_field_first=0|repeat_pict=0|tag:lavfi.scene_score=0.880703
media_type=video|stream_index=0|key_frame=1|pkt_pts=1470625|pkt_pts_time=490.699032|pkt_dts=1470625|pkt_dts_time=490.699032|best_effort_timestamp=1470625|best_effort_timestamp_time=490.699032|pkt_duration=125|pkt_duration_time=0.041708|pkt_pos=48317529|pkt_size=876960|width=720|height=406|pix_fmt=rgb24|sample_aspect_ratio=1:1|pict_type=I|coded_picture_number=0|display_picture_number=0|interlaced_frame=0|top_field_first=0|repeat_pict=0|tag:lavfi.scene_score=0.830936
media_type=video|stream_index=0|key_frame=1|pkt_pts=1488125|pkt_pts_time=496.538205|pkt_dts=1488125|pkt_dts_time=496.538205|best_effort_timestamp=1488125|best_effort_timestamp_time=496.538205|pkt_duration=125|pkt_duration_time=0.041708|pkt_pos=48651060|pkt_size=876960|width=720|height=406|pix_fmt=rgb24|sample_aspect_ratio=1:1|pict_type=I|coded_picture_number=0|display_picture_number=0|interlaced_frame=0|top_field_first=0|repeat_pict=0|tag:lavfi.scene_score=0.901663
media_type=video|stream_index=0|key_frame=1|pkt_pts=1509625|pkt_pts_time=503.712045|pkt_dts=1509625|pkt_dts_time=503.712045|best_effort_timestamp=1509625|best_effort_timestamp_time=503.712045|pkt_duration=125|pkt_duration_time=0.041708|pkt_pos=49360113|pkt_size=876960|width=720|height=406|pix_fmt=rgb24|sample_aspect_ratio=1:1|pict_type=I|coded_picture_number=0|display_picture_number=0|interlaced_frame=0|top_field_first=0|repeat_pict=0|tag:lavfi.scene_score=0.800667
media_type=video|stream_index=0|key_frame=1|pkt_pts=1532125|pkt_pts_time=511.219553|pkt_dts=1532125|pkt_dts_time=511.219553|best_effort_timestamp=1532125|best_effort_timestamp_time=511.219553|pkt_duration=125|pkt_duration_time=0.041708|pkt_pos=49824595|pkt_size=876960|width=720|height=406|pix_fmt=rgb24|sample_aspect_ratio=1:1|pict_type=I|coded_picture_number=0|display_picture_number=0|interlaced_frame=0|top_field_first=0|repeat_pict=0|tag:lavfi.scene_score=0.819063
media_type=video|stream_index=0|key_frame=1|pkt_pts=1544000|pkt_pts_time=515.181849|pkt_dts=1544000|pkt_dts_time=515.181849|best_effort_timestamp=1544000|best_effort_timestamp_time=515.181849|pkt_duration=125|pkt_duration_time=0.041708|pkt_pos=50113104|pkt_size=876960|width=720|height=406|pix_fmt=rgb24|sample_aspect_ratio=1:1|pict_type=I|coded_picture_number=0|display_picture_number=0|interlaced_frame=0|top_field_first=0|repeat_pict=0|tag:lavfi.scene_score=0.846477
media_type=video|stream_index=0|key_frame=1|pkt_pts=1557375|pkt_pts_time=519.644645|pkt_dts=1557375|pkt_dts_time=519.644645|best_effort_timestamp=1557375|best_effort_timestamp_time=519.644645|pkt_duration=125|pkt_duration_time=0.041708|pkt_pos=50435586|pkt_size=876960|width=720|height=406|pix_fmt=rgb24|sample_aspect_ratio=1:1|pict_type=I|coded_picture_number=0|display_picture_number=0|interlaced_frame=0|top_field_first=0|repeat_pict=0|tag:lavfi.scene_score=0.855559
media_type=video|stream_index=0|key_frame=1|pkt_pts=1577500|pkt_pts_time=526.359693|pkt_dts=1577500|pkt_dts_time=526.359693|best_effort_timestamp=1577500|best_effort_timestamp_time=526.359693|pkt_duration=125|pkt_duration_time=0.041708|pkt_pos=50946546|pkt_size=876960|width=720|height=406|pix_fmt=rgb24|sample_aspect_ratio=1:1|pict_type=I|coded_picture_number=0|display_picture_number=0|interlaced_frame=0|top_field_first=0|repeat_pict=0|tag:lavfi.scene_score=0.836056
media_type=video|stream_index=0|key_frame=1|pkt_pts=1588750|pkt_pts_time=530.113447|pkt_dts=1588750|pkt_dts_time=530.113447|best_effort_timestamp=1588750|best_effort_timestamp_time=530.113447|pkt_duration=125|pkt_duration_time=0.041708|pkt_pos=51227704|pkt_size=876960|width=720|height=406|pix_fmt=rgb24|sample_aspect_ratio=1:1|pict_type=I|coded_picture_number=0|display_picture_number=0|interlaced_frame=0|top_field_first=0|repeat_pict=0|tag:lavfi.scene_score=0.846162
media_type=video|stream_index=0|key_frame=1|pkt_pts=1599875|pkt_pts_time=533.825492|pkt_dts=1599875|pkt_dts_time=533.825492|best_effort_timestamp=1599875|best_effort_timestamp_time=533.825492|pkt_duration=125|pkt_duration_time=0.041708|pkt_pos=51476478|pkt_size=876960|width=720|height=406|pix_fmt=rgb24|sample_aspect_ratio=1:1|pict_type=I|coded_picture_number=0|display_picture_number=0|interlaced_frame=0|top_field_first=0|repeat_pict=0|tag:lavfi.scene_score=0.915054
media_type=video|stream_index=0|key_frame=1|pkt_pts=1623375|pkt_pts_time=541.666667|pkt_dts=1623375|pkt_dts_time=541.666667|best_effort_timestamp=1623375|best_effort_timestamp_time=541.666667|pkt_duration=125|pkt_duration_time=0.041708|pkt_pos=51952527|pkt_size=876960|width=720|height=406|pix_fmt=rgb24|sample_aspect_ratio=1:1|pict_type=I|coded_picture_number=0|display_picture_number=0|interlaced_frame=0|top_field_first=0|repeat_pict=0|tag:lavfi.scene_score=0.860062
media_type=video|stream_index=0|key_frame=1|pkt_pts=1641875|pkt_pts_time=547.839506|pkt_dts=1641875|pkt_dts_time=547.839506|best_effort_timestamp=1641875|best_effort_timestamp_time=547.839506|pkt_duration=125|pkt_duration_time=0.041708|pkt_pos=52314464|pkt_size=876960|width=720|height=406|pix_fmt=rgb24|sample_aspect_ratio=1:1|pict_type=I|coded_picture_number=0|display_picture_number=0|interlaced_frame=0|top_field_first=0|repeat_pict=0|tag:lavfi.scene_score=0.792466
media_type=video|stream_index=0|key_frame=1|pkt_pts=1685250|pkt_pts_time=562.312312|pkt_dts=1685250|pkt_dts_time=562.312312|best_effort_timestamp=1685250|best_effort_timestamp_time=562.312312|pkt_duration=125|pkt_duration_time=0.041708|pkt_pos=53145759|pkt_size=876960|width=720|height=406|pix_fmt=rgb24|sample_aspect_ratio=1:1|pict_type=I|coded_picture_number=0|display_picture_number=0|interlaced_frame=0|top_field_first=0|repeat_pict=0|tag:lavfi.scene_score=0.732699
media_type=video|stream_index=0|key_frame=1|pkt_pts=1691625|pkt_pts_time=564.439439|pkt_dts=1691625|pkt_dts_time=564.439439|best_effort_timestamp=1691625|best_effort_timestamp_time=564.439439|pkt_duration=125|pkt_duration_time=0.041708|pkt_pos=53442739|pkt_size=876960|width=720|height=406|pix_fmt=rgb24|sample_aspect_ratio=1:1|pict_type=I|coded_picture_number=0|display_picture_number=0|interlaced_frame=0|top_field_first=0|repeat_pict=0|tag:lavfi.scene_score=0.955842
media_type=video|stream_index=0|key_frame=1|pkt_pts=1707500|pkt_pts_time=569.736403|pkt_dts=1707500|pkt_dts_time=569.736403|best_effort_timestamp=1707500|best_effort_timestamp_time=569.736403|pkt_duration=125|pkt_duration_time=0.041708|pkt_pos=54081659|pkt_size=876960|width=720|height=406|pix_fmt=rgb24|sample_aspect_ratio=1:1|pict_type=I|coded_picture_number=0|display_picture_number=0|interlaced_frame=0|top_field_first=0|repeat_pict=0|tag:lavfi.scene_score=0.955633
media_type=video|stream_index=0|key_frame=1|pkt_pts=1750000|pkt_pts_time=583.917251|pkt_dts=1750000|pkt_dts_time=583.917251|best_effort_timestamp=1750000|best_effort_timestamp_time=583.917251|pkt_duration=125|pkt_duration_time=0.041708|pkt_pos=55434177|pkt_size=876960|width=720|height=406|pix_fmt=rgb24|sample_aspect_ratio=1:1|pict_type=I|coded_picture_number=0|display_picture_number=0|interlaced_frame=0|top_field_first=0|repeat_pict=0|tag:lavfi.scene_score=1.000000
media_type=video|stream_index=0|key_frame=1|pkt_pts=1788375|pkt_pts_time=596.721722|pkt_dts=1788375|pkt_dts_time=596.721722|best_effort_timestamp=1788375|best_effort_timestamp_time=596.721722|pkt_duration=125|pkt_duration_time=0.041708|pkt_pos=57423056|pkt_size=876960|width=720|height=406|pix_fmt=rgb24|sample_aspect_ratio=1:1|pict_type=I|coded_picture_number=0|display_picture_number=0|interlaced_frame=0|top_field_first=0|repeat_pict=0|tag:lavfi.scene_score=0.912147
media_type=video|stream_index=0|key_frame=1|pkt_pts=1808625|pkt_pts_time=603.478478|pkt_dts=1808625|pkt_dts_time=603.478478|best_effort_timestamp=1808625|best_effort_timestamp_time=603.478478|pkt_duration=125|pkt_duration_time=0.041708|pkt_pos=57954847|pkt_size=876960|width=720|height=406|pix_fmt=rgb24|sample_aspect_ratio=1:1|pict_type=I|coded_picture_number=0|display_picture_number=0|interlaced_frame=0|top_field_first=0|repeat_pict=0|tag:lavfi.scene_score=1.000000
media_type=video|stream_index=0|key_frame=1|pkt_pts=1821500|pkt_pts_time=607.774441|pkt_dts=1821500|pkt_dts_time=607.774441|best_effort_timestamp=1821500|best_effort_timestamp_time=607.774441|pkt_duration=125|pkt_duration_time=0.041708|pkt_pos=58202819|pkt_size=876960|width=720|height=406|pix_fmt=rgb24|sample_aspect_ratio=1:1|pict_type=I|coded_picture_number=0|display_picture_number=0|interlaced_frame=0|top_field_first=0|repeat_pict=0|tag:lavfi.scene_score=1.000000
media_type=video|stream_index=0|key_frame=1|pkt_pts=1865000|pkt_pts_time=622.288956|pkt_dts=1865000|pkt_dts_time=622.288956|best_effort_timestamp=1865000|best_effort_timestamp_time=622.288956|pkt_duration=125|pkt_duration_time=0.041708|pkt_pos=59315779|pkt_size=876960|width=720|height=406|pix_fmt=rgb24|sample_aspect_ratio=1:1|pict_type=I|coded_picture_number=0|display_picture_number=0|interlaced_frame=0|top_field_first=0|repeat_pict=0|tag:lavfi.scene_score=1.000000
media_type=video|stream_index=0|key_frame=1|pkt_pts=1874750|pkt_pts_time=625.542209|pkt_dts=1874750|pkt_dts_time=625.542209|best_effort_timestamp=1874750|best_effort_timestamp_time=625.542209|pkt_duration=125|pkt_duration_time=0.041708|pkt_pos=59749353|pkt_size=876960|width=720|height=406|pix_fmt=rgb24|sample_aspect_ratio=1:1|pict_type=I|coded_picture_number=0|display_picture_number=0|interlaced_frame=0|top_field_first=0|repeat_pict=0|tag:lavfi.scene_score=0.497033
media_type=video|stream_index=0|key_frame=1|pkt_pts=1889000|pkt_pts_time=630.296964|pkt_dts=1889000|pkt_dts_time=630.296964|best_effort_timestamp=1889000|best_effort_timestamp_time=630.296964|pkt_duration=125|pkt_duration_time=0.041708|pkt_pos=60257099|pkt_size=876960|width=720|height=406|pix_fmt=rgb24|sample_aspect_ratio=1:1|pict_type=I|coded_picture_number=0|display_picture_number=0|interlaced_frame=0|top_field_first=0|repeat_pict=0|tag:lavfi.scene_score=0.835541
media_type=video|stream_index=0|key_frame=1|pkt_pts=1896250|pkt_pts_time=632.716049|pkt_dts=1896250|pkt_dts_time=632.716049|best_effort_timestamp=1896250|best_effort_timestamp_time=632.716049|pkt_duration=125|pkt_duration_time=0.041708|pkt_pos=60515401|pkt_size=876960|width=720|height=406|pix_fmt=rgb24|sample_aspect_ratio=1:1|pict_type=I|coded_picture_number=0|display_picture_number=0|interlaced_frame=0|top_field_first=0|repeat_pict=0|tag:lavfi.scene_score=0.709363
media_type=video|stream_index=0|key_frame=1|pkt_pts=1904125|pkt_pts_time=635.343677|pkt_dts=1904125|pkt_dts_time=635.343677|best_effort_timestamp=1904125|best_effort_timestamp_time=635.343677|pkt_duration=125|pkt_duration_time=0.041708|pkt_pos=60766107|pkt_size=876960|width=720|height=406|pix_fmt=rgb24|sample_aspect_ratio=1:1|pict_type=I|coded_picture_number=0|display_picture_number=0|interlaced_frame=0|top_field_first=0|repeat_pict=0|tag:lavfi.scene_score=0.651563
media_type=video|stream_index=0|key_frame=1|pkt_pts=1913000|pkt_pts_time=638.304972|pkt_dts=1913000|pkt_dts_time=638.304972|best_effort_timestamp=1913000|best_effort_timestamp_time=638.304972|pkt_duration=125|pkt_duration_time=0.041708|pkt_pos=61061293|pkt_size=876960|width=720|height=406|pix_fmt=rgb24|sample_aspect_ratio=1:1|pict_type=I|coded_picture_number=0|display_picture_number=0|interlaced_frame=0|top_field_first=0|repeat_pict=0|tag:lavfi.scene_score=0.903795
media_type=video|stream_index=0|key_frame=1|pkt_pts=1920250|pkt_pts_time=640.724057|pkt_dts=1920250|pkt_dts_time=640.724057|best_effort_timestamp=1920250|best_effort_timestamp_time=640.724057|pkt_duration=125|pkt_duration_time=0.041708|pkt_pos=61167145|pkt_size=876960|width=720|height=406|pix_fmt=rgb24|sample_aspect_ratio=1:1|pict_type=I|coded_picture_number=0|display_picture_number=0|interlaced_frame=0|top_field_first=0|repeat_pict=0|tag:lavfi.scene_score=0.707015
media_type=video|stream_index=0|key_frame=1|pkt_pts=1937500|pkt_pts_time=646.479813|pkt_dts=1937500|pkt_dts_time=646.479813|best_effort_timestamp=1937500|best_effort_timestamp_time=646.479813|pkt_duration=125|pkt_duration_time=0.041708|pkt_pos=62701496|pkt_size=876960|width=720|height=406|pix_fmt=rgb24|sample_aspect_ratio=1:1|pict_type=I|coded_picture_number=0|display_picture_number=0|interlaced_frame=0|top_field_first=0|repeat_pict=0|tag:lavfi.scene_score=0.582389
media_type=video|stream_index=0|key_frame=1|pkt_pts=1954875|pkt_pts_time=652.277277|pkt_dts=1954875|pkt_dts_time=652.277277|best_effort_timestamp=1954875|best_effort_timestamp_time=652.277277|pkt_duration=125|pkt_duration_time=0.041708|pkt_pos=63211559|pkt_size=876960|width=720|height=406|pix_fmt=rgb24|sample_aspect_ratio=1:1|pict_type=I|coded_picture_number=0|display_picture_number=0|interlaced_frame=0|top_field_first=0|repeat_pict=0|tag:lavfi.scene_score=0.645770
media_type=video|stream_index=0|key_frame=1|pkt_pts=1961000|pkt_pts_time=654.320988|pkt_dts=1961000|pkt_dts_time=654.320988|best_effort_timestamp=1961000|best_effort_timestamp_time=654.320988|pkt_duration=125|pkt_duration_time=0.041708|pkt_pos=63491243|pkt_size=876960|width=720|height=406|pix_fmt=rgb24|sample_aspect_ratio=1:1|pict_type=I|coded_picture_number=0|display_picture_number=0|interlaced_frame=0|top_field_first=0|repeat_pict=0|tag:lavfi.scene_score=0.629249
media_type=video|stream_index=0|key_frame=1|pkt_pts=1971125|pkt_pts_time=657.699366|pkt_dts=1971125|pkt_dts_time=657.699366|best_effort_timestamp=1971125|best_effort_timestamp_time=657.699366|pkt_duration=125|pkt_duration_time=0.041708|pkt_pos=63925184|pkt_size=876960|width=720|height=406|pix_fmt=rgb24|sample_aspect_ratio=1:1|pict_type=I|coded_picture_number=0|display_picture_number=0|interlaced_frame=0|top_field_first=0|repeat_pict=0|tag:lavfi.scene_score=0.490067
media_type=video|stream_index=0|key_frame=1|pkt_pts=2032500|pkt_pts_time=678.178178|pkt_dts=2032500|pkt_dts_time=678.178178|best_effort_timestamp=2032500|best_effort_timestamp_time=678.178178|pkt_duration=125|pkt_duration_time=0.041708|pkt_pos=66683916|pkt_size=876960|width=720|height=406|pix_fmt=rgb24|sample_aspect_ratio=1:1|pict_type=I|coded_picture_number=0|display_picture_number=0|interlaced_frame=0|top_field_first=0|repeat_pict=0|tag:lavfi.scene_score=0.599304
media_type=video|stream_index=0|key_frame=1|pkt_pts=2071250|pkt_pts_time=691.107774|pkt_dts=2071250|pkt_dts_time=691.107774|best_effort_timestamp=2071250|best_effort_timestamp_time=691.107774|pkt_duration=125|pkt_duration_time=0.041708|pkt_pos=67603288|pkt_size=876960|width=720|height=406|pix_fmt=rgb24|sample_aspect_ratio=1:1|pict_type=I|coded_picture_number=0|display_picture_number=0|interlaced_frame=0|top_field_first=0|repeat_pict=0|tag:lavfi.scene_score=0.770577
media_type=video|stream_index=0|key_frame=1|pkt_pts=2086250|pkt_pts_time=696.112779|pkt_dts=2086250|pkt_dts_time=696.112779|best_effort_timestamp=2086250|best_effort_timestamp_time=696.112779|pkt_duration=125|pkt_duration_time=0.041708|pkt_pos=68113105|pkt_size=876960|width=720|height=406|pix_fmt=rgb24|sample_aspect_ratio=1:1|pict_type=I|coded_picture_number=0|display_picture_number=0|interlaced_frame=0|top_field_first=0|repeat_pict=0|tag:lavfi.scene_score=0.717004
media_type=video|stream_index=0|key_frame=1|pkt_pts=2096875|pkt_pts_time=699.657991|pkt_dts=2096875|pkt_dts_time=699.657991|best_effort_timestamp=2096875|best_effort_timestamp_time=699.657991|pkt_duration=125|pkt_duration_time=0.041708|pkt_pos=68425916|pkt_size=876960|width=720|height=406|pix_fmt=rgb24|sample_aspect_ratio=1:1|pict_type=I|coded_picture_number=0|display_picture_number=0|interlaced_frame=0|top_field_first=0|repeat_pict=0|tag:lavfi.scene_score=0.654527
media_type=video|stream_index=0|key_frame=1|pkt_pts=2131500|pkt_pts_time=711.211211|pkt_dts=2131500|pkt_dts_time=711.211211|best_effort_timestamp=2131500|best_effort_timestamp_time=711.211211|pkt_duration=125|pkt_duration_time=0.041708|pkt_pos=69583533|pkt_size=876960|width=720|height=406|pix_fmt=rgb24|sample_aspect_ratio=1:1|pict_type=I|coded_picture_number=0|display_picture_number=0|interlaced_frame=0|top_field_first=0|repeat_pict=0|tag:lavfi.scene_score=0.683335
media_type=video|stream_index=0|key_frame=1|pkt_pts=2149875|pkt_pts_time=717.342342|pkt_dts=2149875|pkt_dts_time=717.342342|best_effort_timestamp=2149875|best_effort_timestamp_time=717.342342|pkt_duration=125|pkt_duration_time=0.041708|pkt_pos=70212138|pkt_size=876960|width=720|height=406|pix_fmt=rgb24|sample_aspect_ratio=1:1|pict_type=I|coded_picture_number=0|display_picture_number=0|interlaced_frame=0|top_field_first=0|repeat_pict=0|tag:lavfi.scene_score=0.805987
media_type=video|stream_index=0|key_frame=1|pkt_pts=2190000|pkt_pts_time=730.730731|pkt_dts=2190000|pkt_dts_time=730.730731|best_effort_timestamp=2190000|best_effort_timestamp_time=730.730731|pkt_duration=125|pkt_duration_time=0.041708|pkt_pos=71084376|pkt_size=876960|width=720|height=406|pix_fmt=rgb24|sample_aspect_ratio=1:1|pict_type=I|coded_picture_number=0|display_picture_number=0|interlaced_frame=0|top_field_first=0|repeat_pict=0|tag:lavfi.scene_score=0.542102
media_type=video|stream_index=0|key_frame=1|pkt_pts=2366625|pkt_pts_time=789.664665|pkt_dts=2366625|pkt_dts_time=789.664665|best_effort_timestamp=2366625|best_effort_timestamp_time=789.664665|pkt_duration=125|pkt_duration_time=0.041708|pkt_pos=74678487|pkt_size=876960|width=720|height=406|pix_fmt=rgb24|sample_aspect_ratio=1:1|pict_type=I|coded_picture_number=0|display_picture_number=0|interlaced_frame=0|top_field_first=0|repeat_pict=0|tag:lavfi.scene_score=0.469843
media_type=video|stream_index=0|key_frame=1|pkt_pts=2406750|pkt_pts_time=803.053053|pkt_dts=2406750|pkt_dts_time=803.053053|best_effort_timestamp=2406750|best_effort_timestamp_time=803.053053|pkt_duration=125|pkt_duration_time=0.041708|pkt_pos=76413847|pkt_size=876960|width=720|height=406|pix_fmt=rgb24|sample_aspect_ratio=1:1|pict_type=I|coded_picture_number=0|display_picture_number=0|interlaced_frame=0|top_field_first=0|repeat_pict=0|tag:lavfi.scene_score=0.519425
media_type=video|stream_index=0|key_frame=1|pkt_pts=2418375|pkt_pts_time=806.931932|pkt_dts=2418375|pkt_dts_time=806.931932|best_effort_timestamp=2418375|best_effort_timestamp_time=806.931932|pkt_duration=125|pkt_duration_time=0.041708|pkt_pos=76809224|pkt_size=876960|width=720|height=406|pix_fmt=rgb24|sample_aspect_ratio=1:1|pict_type=I|coded_picture_number=0|display_picture_number=0|interlaced_frame=0|top_field_first=0|repeat_pict=0|tag:lavfi.scene_score=0.502907
media_type=video|stream_index=0|key_frame=1|pkt_pts=2426500|pkt_pts_time=809.642976|pkt_dts=2426500|pkt_dts_time=809.642976|best_effort_timestamp=2426500|best_effort_timestamp_time=809.642976|pkt_duration=125|pkt_duration_time=0.041708|pkt_pos=77056467|pkt_size=876960|width=720|height=406|pix_fmt=rgb24|sample_aspect_ratio=1:1|pict_type=I|coded_picture_number=0|display_picture_number=0|interlaced_frame=0|top_field_first=0|repeat_pict=0|tag:lavfi.scene_score=0.571582
media_type=video|stream_index=0|key_frame=1|pkt_pts=2440875|pkt_pts_time=814.439439|pkt_dts=2440875|pkt_dts_time=814.439439|best_effort_timestamp=2440875|best_effort_timestamp_time=814.439439|pkt_duration=125|pkt_duration_time=0.041708|pkt_pos=77431056|pkt_size=876960|width=720|height=406|pix_fmt=rgb24|sample_aspect_ratio=1:1|pict_type=I|coded_picture_number=0|display_picture_number=0|interlaced_frame=0|top_field_first=0|repeat_pict=0|tag:lavfi.scene_score=0.415819
media_type=video|stream_index=0|key_frame=1|pkt_pts=2835250|pkt_pts_time=946.029363|pkt_dts=2835250|pkt_dts_time=946.029363|best_effort_timestamp=2835250|best_effort_timestamp_time=946.029363|pkt_duration=125|pkt_duration_time=0.041708|pkt_pos=84735737|pkt_size=876960|width=720|height=406|pix_fmt=rgb24|sample_aspect_ratio=1:1|pict_type=I|coded_picture_number=0|display_picture_number=0|interlaced_frame=0|top_field_first=0|repeat_pict=0|tag:lavfi.scene_score=0.481323
media_type=video|stream_index=0|key_frame=1|pkt_pts=3605000|pkt_pts_time=1202.869536|pkt_dts=3605000|pkt_dts_time=1202.869536|best_effort_timestamp=3605000|best_effort_timestamp_time=1202.869536|pkt_duration=125|pkt_duration_time=0.041708|pkt_pos=99699149|pkt_size=876960|width=720|height=406|pix_fmt=rgb24|sample_aspect_ratio=1:1|pict_type=I|coded_picture_number=0|display_picture_number=0|interlaced_frame=0|top_field_first=0|repeat_pict=0|tag:lavfi.scene_score=0.730148
media_type=video|stream_index=0|key_frame=1|pkt_pts=3632000|pkt_pts_time=1211.878545|pkt_dts=3632000|pkt_dts_time=1211.878545|best_effort_timestamp=3632000|best_effort_timestamp_time=1211.878545|pkt_duration=125|pkt_duration_time=0.041708|pkt_pos=101149427|pkt_size=876960|width=720|height=406|pix_fmt=rgb24|sample_aspect_ratio=1:1|pict_type=I|coded_picture_number=0|display_picture_number=0|interlaced_frame=0|top_field_first=0|repeat_pict=0|tag:lavfi.scene_score=0.898087
media_type=video|stream_index=0|key_frame=1|pkt_pts=3656750|pkt_pts_time=1220.136803|pkt_dts=3656750|pkt_dts_time=1220.136803|best_effort_timestamp=3656750|best_effort_timestamp_time=1220.136803|pkt_duration=125|pkt_duration_time=0.041708|pkt_pos=101999313|pkt_size=876960|width=720|height=406|pix_fmt=rgb24|sample_aspect_ratio=1:1|pict_type=I|coded_picture_number=0|display_picture_number=0|interlaced_frame=0|top_field_first=0|repeat_pict=0|tag:lavfi.scene_score=0.548189
media_type=video|stream_index=0|key_frame=1|pkt_pts=3684750|pkt_pts_time=1229.479479|pkt_dts=3684750|pkt_dts_time=1229.479479|best_effort_timestamp=3684750|best_effort_timestamp_time=1229.479479|pkt_duration=125|pkt_duration_time=0.041708|pkt_pos=102537509|pkt_size=876960|width=720|height=406|pix_fmt=rgb24|sample_aspect_ratio=1:1|pict_type=I|coded_picture_number=0|display_picture_number=0|interlaced_frame=0|top_field_first=0|repeat_pict=0|tag:lavfi.scene_score=0.605336
media_type=video|stream_index=0|key_frame=1|pkt_pts=3691750|pkt_pts_time=1231.815148|pkt_dts=3691750|pkt_dts_time=1231.815148|best_effort_timestamp=3691750|best_effort_timestamp_time=1231.815148|pkt_duration=125|pkt_duration_time=0.041708|pkt_pos=102693196|pkt_size=876960|width=720|height=406|pix_fmt=rgb24|sample_aspect_ratio=1:1|pict_type=I|coded_picture_number=0|display_picture_number=0|interlaced_frame=0|top_field_first=0|repeat_pict=0|tag:lavfi.scene_score=0.721045
media_type=video|stream_index=0|key_frame=1|pkt_pts=3718875|pkt_pts_time=1240.865866|pkt_dts=3718875|pkt_dts_time=1240.865866|best_effort_timestamp=3718875|best_effort_timestamp_time=1240.865866|pkt_duration=125|pkt_duration_time=0.041708|pkt_pos=103137435|pkt_size=876960|width=720|height=406|pix_fmt=rgb24|sample_aspect_ratio=1:1|pict_type=I|coded_picture_number=0|display_picture_number=0|interlaced_frame=0|top_field_first=0|repeat_pict=0|tag:lavfi.scene_score=0.633174
media_type=video|stream_index=0|key_frame=1|pkt_pts=3769375|pkt_pts_time=1257.716049|pkt_dts=3769375|pkt_dts_time=1257.716049|best_effort_timestamp=3769375|best_effort_timestamp_time=1257.716049|pkt_duration=125|pkt_duration_time=0.041708|pkt_pos=104112400|pkt_size=876960|width=720|height=406|pix_fmt=rgb24|sample_aspect_ratio=1:1|pict_type=I|coded_picture_number=0|display_picture_number=0|interlaced_frame=0|top_field_first=0|repeat_pict=0|tag:lavfi.scene_score=0.635340
media_type=video|stream_index=0|key_frame=1|pkt_pts=3799125|pkt_pts_time=1267.642643|pkt_dts=3799125|pkt_dts_time=1267.642643|best_effort_timestamp=3799125|best_effort_timestamp_time=1267.642643|pkt_duration=125|pkt_duration_time=0.041708|pkt_pos=104571203|pkt_size=876960|width=720|height=406|pix_fmt=rgb24|sample_aspect_ratio=1:1|pict_type=I|coded_picture_number=0|display_picture_number=0|interlaced_frame=0|top_field_first=0|repeat_pict=0|tag:lavfi.scene_score=0.702946
media_type=video|stream_index=0|key_frame=1|pkt_pts=3825625|pkt_pts_time=1276.484818|pkt_dts=3825625|pkt_dts_time=1276.484818|best_effort_timestamp=3825625|best_effort_timestamp_time=1276.484818|pkt_duration=125|pkt_duration_time=0.041708|pkt_pos=105156248|pkt_size=876960|width=720|height=406|pix_fmt=rgb24|sample_aspect_ratio=1:1|pict_type=I|coded_picture_number=0|display_picture_number=0|interlaced_frame=0|top_field_first=0|repeat_pict=0|tag:lavfi.scene_score=0.986811
media_type=video|stream_index=0|key_frame=1|pkt_pts=3844250|pkt_pts_time=1282.699366|pkt_dts=3844250|pkt_dts_time=1282.699366|best_effort_timestamp=3844250|best_effort_timestamp_time=1282.699366|pkt_duration=125|pkt_duration_time=0.041708|pkt_pos=106001341|pkt_size=876960|width=720|height=406|pix_fmt=rgb24|sample_aspect_ratio=1:1|pict_type=I|coded_picture_number=0|display_picture_number=0|interlaced_frame=0|top_field_first=0|repeat_pict=0|tag:lavfi.scene_score=1.000000
media_type=video|stream_index=0|key_frame=1|pkt_pts=3861375|pkt_pts_time=1288.413413|pkt_dts=3861375|pkt_dts_time=1288.413413|best_effort_timestamp=3861375|best_effort_timestamp_time=1288.413413|pkt_duration=125|pkt_duration_time=0.041708|pkt_pos=106413649|pkt_size=876960|width=720|height=406|pix_fmt=rgb24|sample_aspect_ratio=1:1|pict_type=I|coded_picture_number=0|display_picture_number=0|interlaced_frame=0|top_field_first=0|repeat_pict=0|tag:lavfi.scene_score=0.529208
media_type=video|stream_index=0|key_frame=1|pkt_pts=3863000|pkt_pts_time=1288.955622|pkt_dts=3863000|pkt_dts_time=1288.955622|best_effort_timestamp=3863000|best_effort_timestamp_time=1288.955622|pkt_duration=125|pkt_duration_time=0.041708|pkt_pos=106501005|pkt_size=876960|width=720|height=406|pix_fmt=rgb24|sample_aspect_ratio=1:1|pict_type=I|coded_picture_number=0|display_picture_number=0|interlaced_frame=0|top_field_first=0|repeat_pict=0|tag:lavfi.scene_score=0.482127
media_type=video|stream_index=0|key_frame=1|pkt_pts=3885875|pkt_pts_time=1296.588255|pkt_dts=3885875|pkt_dts_time=1296.588255|best_effort_timestamp=3885875|best_effort_timestamp_time=1296.588255|pkt_duration=125|pkt_duration_time=0.041708|pkt_pos=107232376|pkt_size=876960|width=720|height=406|pix_fmt=rgb24|sample_aspect_ratio=1:1|pict_type=I|coded_picture_number=0|display_picture_number=0|interlaced_frame=0|top_field_first=0|repeat_pict=0|tag:lavfi.scene_score=0.715472
media_type=video|stream_index=0|key_frame=1|pkt_pts=3890250|pkt_pts_time=1298.048048|pkt_dts=3890250|pkt_dts_time=1298.048048|best_effort_timestamp=3890250|best_effort_timestamp_time=1298.048048|pkt_duration=125|pkt_duration_time=0.041708|pkt_pos=107607479|pkt_size=876960|width=720|height=406|pix_fmt=rgb24|sample_aspect_ratio=1:1|pict_type=I|coded_picture_number=0|display_picture_number=0|interlaced_frame=0|top_field_first=0|repeat_pict=0|tag:lavfi.scene_score=0.693591
media_type=video|stream_index=0|key_frame=1|pkt_pts=3903000|pkt_pts_time=1302.302302|pkt_dts=3903000|pkt_dts_time=1302.302302|best_effort_timestamp=3903000|best_effort_timestamp_time=1302.302302|pkt_duration=125|pkt_duration_time=0.041708|pkt_pos=108099480|pkt_size=876960|width=720|height=406|pix_fmt=rgb24|sample_aspect_ratio=1:1|pict_type=I|coded_picture_number=0|display_picture_number=0|interlaced_frame=0|top_field_first=0|repeat_pict=0|tag:lavfi.scene_score=0.642159
media_type=video|stream_index=0|key_frame=1|pkt_pts=3910500|pkt_pts_time=1304.804805|pkt_dts=3910500|pkt_dts_time=1304.804805|best_effort_timestamp=3910500|best_effort_timestamp_time=1304.804805|pkt_duration=125|pkt_duration_time=0.041708|pkt_pos=108537999|pkt_size=876960|width=720|height=406|pix_fmt=rgb24|sample_aspect_ratio=1:1|pict_type=I|coded_picture_number=0|display_picture_number=0|interlaced_frame=0|top_field_first=0|repeat_pict=0|tag:lavfi.scene_score=0.408314
media_type=video|stream_index=0|key_frame=1|pkt_pts=3915625|pkt_pts_time=1306.514848|pkt_dts=3915625|pkt_dts_time=1306.514848|best_effort_timestamp=3915625|best_effort_timestamp_time=1306.514848|pkt_duration=125|pkt_duration_time=0.041708|pkt_pos=108940693|pkt_size=876960|width=720|height=406|pix_fmt=rgb24|sample_aspect_ratio=1:1|pict_type=I|coded_picture_number=0|display_picture_number=0|interlaced_frame=0|top_field_first=0|repeat_pict=0|tag:lavfi.scene_score=0.449522
media_type=video|stream_index=0|key_frame=1|pkt_pts=3929000|pkt_pts_time=1310.977644|pkt_dts=3929000|pkt_dts_time=1310.977644|best_effort_timestamp=3929000|best_effort_timestamp_time=1310.977644|pkt_duration=125|pkt_duration_time=0.041708|pkt_pos=109197703|pkt_size=876960|width=720|height=406|pix_fmt=rgb24|sample_aspect_ratio=1:1|pict_type=I|coded_picture_number=0|display_picture_number=0|interlaced_frame=0|top_field_first=0|repeat_pict=0|tag:lavfi.scene_score=0.522874
media_type=video|stream_index=0|key_frame=1|pkt_pts=3939500|pkt_pts_time=1314.481148|pkt_dts=3939500|pkt_dts_time=1314.481148|best_effort_timestamp=3939500|best_effort_timestamp_time=1314.481148|pkt_duration=125|pkt_duration_time=0.041708|pkt_pos=110075194|pkt_size=876960|width=720|height=406|pix_fmt=rgb24|sample_aspect_ratio=1:1|pict_type=I|coded_picture_number=0|display_picture_number=0|interlaced_frame=0|top_field_first=0|repeat_pict=0|tag:lavfi.scene_score=1.000000
media_type=video|stream_index=0|key_frame=1|pkt_pts=4533625|pkt_pts_time=1512.721054|pkt_dts=4533625|pkt_dts_time=1512.721054|best_effort_timestamp=4533625|best_effort_timestamp_time=1512.721054|pkt_duration=125|pkt_duration_time=0.041708|pkt_pos=124052006|pkt_size=876960|width=720|height=406|pix_fmt=rgb24|sample_aspect_ratio=1:1|pict_type=I|coded_picture_number=0|display_picture_number=0|interlaced_frame=0|top_field_first=0|repeat_pict=0|tag:lavfi.scene_score=0.432276
media_type=video|stream_index=0|key_frame=1|pkt_pts=5279625|pkt_pts_time=1761.636637|pkt_dts=5279625|pkt_dts_time=1761.636637|best_effort_timestamp=5279625|best_effort_timestamp_time=1761.636637|pkt_duration=125|pkt_duration_time=0.041708|pkt_pos=148464171|pkt_size=876960|width=720|height=406|pix_fmt=rgb24|sample_aspect_ratio=1:1|pict_type=I|coded_picture_number=0|display_picture_number=0|interlaced_frame=0|top_field_first=0|repeat_pict=0|tag:lavfi.scene_score=0.441368
media_type=video|stream_index=0|key_frame=1|pkt_pts=5301375|pkt_pts_time=1768.893894|pkt_dts=5301375|pkt_dts_time=1768.893894|best_effort_timestamp=5301375|best_effort_timestamp_time=1768.893894|pkt_duration=125|pkt_duration_time=0.041708|pkt_pos=149544220|pkt_size=876960|width=720|height=406|pix_fmt=rgb24|sample_aspect_ratio=1:1|pict_type=I|coded_picture_number=0|display_picture_number=0|interlaced_frame=0|top_field_first=0|repeat_pict=0|tag:lavfi.scene_score=0.613018
media_type=video|stream_index=0|key_frame=1|pkt_pts=5318875|pkt_pts_time=1774.733066|pkt_dts=5318875|pkt_dts_time=1774.733066|best_effort_timestamp=5318875|best_effort_timestamp_time=1774.733066|pkt_duration=125|pkt_duration_time=0.041708|pkt_pos=150359060|pkt_size=876960|width=720|height=406|pix_fmt=rgb24|sample_aspect_ratio=1:1|pict_type=I|coded_picture_number=0|display_picture_number=0|interlaced_frame=0|top_field_first=0|repeat_pict=0|tag:lavfi.scene_score=0.460238
media_type=video|stream_index=0|key_frame=1|pkt_pts=6106250|pkt_pts_time=2037.454121|pkt_dts=6106250|pkt_dts_time=2037.454121|best_effort_timestamp=6106250|best_effort_timestamp_time=2037.454121|pkt_duration=125|pkt_duration_time=0.041708|pkt_pos=174106799|pkt_size=876960|width=720|height=406|pix_fmt=rgb24|sample_aspect_ratio=1:1|pict_type=I|coded_picture_number=0|display_picture_number=0|interlaced_frame=0|top_field_first=0|repeat_pict=0|tag:lavfi.scene_score=0.496346
media_type=video|stream_index=0|key_frame=1|pkt_pts=6108500|pkt_pts_time=2038.204872|pkt_dts=6108500|pkt_dts_time=2038.204872|best_effort_timestamp=6108500|best_effort_timestamp_time=2038.204872|pkt_duration=125|pkt_duration_time=0.041708|pkt_pos=174278402|pkt_size=876960|width=720|height=406|pix_fmt=rgb24|sample_aspect_ratio=1:1|pict_type=I|coded_picture_number=0|display_picture_number=0|interlaced_frame=0|top_field_first=0|repeat_pict=0|tag:lavfi.scene_score=0.511469
media_type=video|stream_index=0|key_frame=1|pkt_pts=6109250|pkt_pts_time=2038.455122|pkt_dts=6109250|pkt_dts_time=2038.455122|best_effort_timestamp=6109250|best_effort_timestamp_time=2038.455122|pkt_duration=125|pkt_duration_time=0.041708|pkt_pos=174338337|pkt_size=876960|width=720|height=406|pix_fmt=rgb24|sample_aspect_ratio=1:1|pict_type=I|coded_picture_number=0|display_picture_number=0|interlaced_frame=0|top_field_first=0|repeat_pict=0|tag:lavfi.scene_score=0.452009
media_type=video|stream_index=0|key_frame=1|pkt_pts=6109375|pkt_pts_time=2038.496830|pkt_dts=6109375|pkt_dts_time=2038.496830|best_effort_timestamp=6109375|best_effort_timestamp_time=2038.496830|pkt_duration=125|pkt_duration_time=0.041708|pkt_pos=174346929|pkt_size=876960|width=720|height=406|pix_fmt=rgb24|sample_aspect_ratio=1:1|pict_type=I|coded_picture_number=0|display_picture_number=0|interlaced_frame=0|top_field_first=0|repeat_pict=0|tag:lavfi.scene_score=0.506506
media_type=video|stream_index=0|key_frame=1|pkt_pts=6162875|pkt_pts_time=2056.348015|pkt_dts=6162875|pkt_dts_time=2056.348015|best_effort_timestamp=6162875|best_effort_timestamp_time=2056.348015|pkt_duration=125|pkt_duration_time=0.041708|pkt_pos=176938235|pkt_size=876960|width=720|height=406|pix_fmt=rgb24|sample_aspect_ratio=1:1|pict_type=I|coded_picture_number=0|display_picture_number=0|interlaced_frame=0|top_field_first=0|repeat_pict=0|tag:lavfi.scene_score=0.547578
media_type=video|stream_index=0|key_frame=1|pkt_pts=6173625|pkt_pts_time=2059.934935|pkt_dts=6173625|pkt_dts_time=2059.934935|best_effort_timestamp=6173625|best_effort_timestamp_time=2059.934935|pkt_duration=125|pkt_duration_time=0.041708|pkt_pos=177656651|pkt_size=876960|width=720|height=406|pix_fmt=rgb24|sample_aspect_ratio=1:1|pict_type=I|coded_picture_number=0|display_picture_number=0|interlaced_frame=0|top_field_first=0|repeat_pict=0|tag:lavfi.scene_score=0.820513
media_type=video|stream_index=0|key_frame=1|pkt_pts=6186375|pkt_pts_time=2064.189189|pkt_dts=6186375|pkt_dts_time=2064.189189|best_effort_timestamp=6186375|best_effort_timestamp_time=2064.189189|pkt_duration=125|pkt_duration_time=0.041708|pkt_pos=178248665|pkt_size=876960|width=720|height=406|pix_fmt=rgb24|sample_aspect_ratio=1:1|pict_type=I|coded_picture_number=0|display_picture_number=0|interlaced_frame=0|top_field_first=0|repeat_pict=0|tag:lavfi.scene_score=0.532936
media_type=video|stream_index=0|key_frame=1|pkt_pts=7597500|pkt_pts_time=2535.035035|pkt_dts=7597500|pkt_dts_time=2535.035035|best_effort_timestamp=7597500|best_effort_timestamp_time=2535.035035|pkt_duration=125|pkt_duration_time=0.041708|pkt_pos=198105079|pkt_size=876960|width=720|height=406|pix_fmt=rgb24|sample_aspect_ratio=1:1|pict_type=I|coded_picture_number=0|display_picture_number=0|interlaced_frame=0|top_field_first=0|repeat_pict=0|tag:lavfi.scene_score=0.991610
media_type=video|stream_index=0|key_frame=1|pkt_pts=7603500|pkt_pts_time=2537.037037|pkt_dts=7603500|pkt_dts_time=2537.037037|best_effort_timestamp=7603500|best_effort_timestamp_time=2537.037037|pkt_duration=125|pkt_duration_time=0.041708|pkt_pos=198471951|pkt_size=876960|width=720|height=406|pix_fmt=rgb24|sample_aspect_ratio=1:1|pict_type=I|coded_picture_number=0|display_picture_number=0|interlaced_frame=0|top_field_first=0|repeat_pict=0|tag:lavfi.scene_score=0.694351
media_type=video|stream_index=0|key_frame=1|pkt_pts=7609500|pkt_pts_time=2539.039039|pkt_dts=7609500|pkt_dts_time=2539.039039|best_effort_timestamp=7609500|best_effort_timestamp_time=2539.039039|pkt_duration=125|pkt_duration_time=0.041708|pkt_pos=198937279|pkt_size=876960|width=720|height=406|pix_fmt=rgb24|sample_aspect_ratio=1:1|pict_type=I|coded_picture_number=0|display_picture_number=0|interlaced_frame=0|top_field_first=0|repeat_pict=0|tag:lavfi.scene_score=1.000000
